<?xml version="1.0" encoding="utf-8"?>
<!-- Generator: Adobe Illustrator 25.1.0, SVG Export Plug-In . SVG Version: 6.00 Build 0)  -->
<svg version="1.1" id="Layer_1" xmlns="http://www.w3.org/2000/svg" xmlns:xlink="http://www.w3.org/1999/xlink" x="0px" y="0px"
	 viewBox="0 0 512 512" style="enable-background:new 0 0 512 512;" xml:space="preserve">
<style type="text/css">
	.st0{fill:#C9CACA;}
	.st1{fill:#DFE0E0;}
	.st2{fill:#B7B7B7;}
	.st3{fill:#494F57;}
	.st4{fill:#E15F76;}
	.st5{fill:#5C626B;}
	.st6{fill:#535860;}
	.st7{fill:#FBE067;}
	.st8{fill:#E7CE5F;}
	.st9{fill:#CB556A;}
	.st10{fill:#F7C2AD;}
</style>
<path class="st0" d="M22.1,91.7v81c0,38.1,30.9,69.1,69.1,69.1h20.5c6.3,0,11.5,5.1,11.5,11.5v8.2c0,14.7-4.7,29-13.3,40.8
	l-25.8,35.2c-1.6,2.2,0,5.4,2.7,5.4h81c38.1,0,69.1-30.9,69.1-69.1v-20.5c0-6.3,5.1-11.5,11.5-11.5h8.2c14.7,0,29,4.7,40.8,13.3
	l35.2,25.8c2.2,1.6,5.4,0,5.4-2.7v-81c0-38.1-30.9-69.1-69.1-69.1h-20.5c-6.3,0-11.5-5.1-11.5-11.5v-8.2c0-14.7,4.7-29,13.3-40.8
	L276,32.4c1.6-2.2,0-5.4-2.7-5.4h-81c-38.1,0-69.1,30.9-69.1,69.1v20.5c0,6.3-5.1,11.5-11.5,11.5h-8.2c-14.7,0-29-4.7-40.8-13.3
	L27.5,88.9C25.3,87.3,22.1,88.9,22.1,91.7z"/>
<path class="st1" d="M218.8,186c0-0.4,0-0.8,0-1.1c0-21-16.7-38-37.5-38.7c6.8-53.6,43-99.4,94.6-117.9c0.9,1.1,1.1,2.8,0.1,4.1
	l-25.8,35.2c-8.7,11.8-13.3,26.1-13.3,40.8v8.2c0,6.3,5.1,11.5,11.5,11.5h20.5c38.1,0,69.1,30.9,69.1,69.1v81c0,1.1-0.5,2-1.2,2.6
	C318.3,229.1,272.3,192.8,218.8,186z"/>
<path class="st2" d="M111.7,241.8H91.2c-38.1,0-69.1-30.9-69.1-69.1v-81c0-1.1,0.5-1.9,1.2-2.5c18.5,51.6,64.4,87.9,118,94.6
	c0,0.4,0,0.8,0,1.1c0,21.1,16.8,38.2,37.7,38.7c-6.7,53.6-43.1,99.6-94.7,118.1c-1-1.1-1.3-2.9-0.2-4.3l25.8-35.2
	c8.7-11.8,13.3-26.1,13.3-40.8v-8.2C123.2,246.9,118,241.8,111.7,241.8z"/>
<path class="st1" d="M180,116.3c-37.9,0-68.6,30.7-68.6,68.6s30.7,68.6,68.6,68.6s68.6-30.7,68.6-68.6S217.9,116.3,180,116.3z"/>
<path class="st0" d="M124.1,184.9c0-35.7,27.3-65.1,62.3-68.3c-2.1-0.2-4.2-0.3-6.4-0.3c-37.9,0-68.6,30.7-68.6,68.6
	s30.7,68.6,68.6,68.6c2.1,0,4.3-0.1,6.4-0.3C151.5,250,124.1,220.7,124.1,184.9z"/>
<g>
	<path class="st3" d="M180,197.8c-6,0-10.9-4.9-10.9-10.9v-8.2H191v8.2C191,192.9,186.1,197.8,180,197.8z"/>
	<path class="st3" d="M220.5,183.8c-2.6,0-4.6-2.1-4.6-4.6V172c0-2.6,2.1-4.6,4.6-4.6c2.6,0,4.6,2.1,4.6,4.6v7.2
		C225.1,181.8,223.1,183.8,220.5,183.8z"/>
	<path class="st3" d="M139.6,183.8c-2.6,0-4.6-2.1-4.6-4.6V172c0-2.6,2.1-4.6,4.6-4.6c2.6,0,4.6,2.1,4.6,4.6v7.2
		C144.2,181.8,142.1,183.8,139.6,183.8z"/>
</g>
<path class="st4" d="M224.1,197.5h-7.2c-2.6,0-4.6-2.1-4.6-4.6c0-2.6,2.1-4.6,4.6-4.6h7.2c2.6,0,4.6,2.1,4.6,4.6
	C228.7,195.4,226.7,197.5,224.1,197.5z"/>
<path class="st4" d="M143.2,197.5H136c-2.6,0-4.6-2.1-4.6-4.6c0-2.6,2.1-4.6,4.6-4.6h7.2c2.6,0,4.6,2.1,4.6,4.6
	C147.8,195.4,145.7,197.5,143.2,197.5z"/>
<path class="st5" d="M251.2,376.3l-19,19l-35.8-35.8c-5.2-5.2-5.2-13.7,0-19c5.2-5.2,13.7-5.2,19,0L251.2,376.3z"/>
<path class="st6" d="M202.4,337c-2.2,0.6-4.3,1.7-6,3.5c-5.2,5.2-5.2,13.7,0,19l35.8,35.8l9.5-9.5L205.9,350
	C202.3,346.5,201.2,341.5,202.4,337z"/>
<path class="st1" d="M232.1,395.3l19-19l51.8,51.8l-19,19L232.1,395.3z"/>
<path class="st0" d="M232.1,395.3l9.5-9.5l51.8,51.8l-9.5,9.5L232.1,395.3z"/>
<path class="st7" d="M267.8,376.4L232.2,412c-1.1,1.1-2.9,1.1-4,0l-12.7-12.7c-1.1-1.1-1.1-2.9,0-4l35.6-35.6c1.1-1.1,2.9-1.1,4,0
	l12.7,12.7C268.8,373.5,268.8,375.3,267.8,376.4z"/>
<path class="st8" d="M241.4,398.9l-12.7-12.7c-1.1-1.1-1.1-2.9,0-4l-13.1,13.1c-1.1,1.1-1.1,2.9,0,4l12.7,12.7c1.1,1.1,2.9,1.1,4,0
	l13.1-13.1C244.2,399.9,242.4,399.9,241.4,398.9z"/>
<path class="st5" d="M424.3,376.3l19,19l35.8-35.8c5.2-5.2,5.2-13.7,0-19c-5.2-5.2-13.7-5.2-19,0L424.3,376.3z"/>
<path class="st6" d="M473,337c2.2,0.6,4.3,1.7,6,3.5c5.2,5.2,5.2,13.7,0,19l-35.8,35.8l-9.5-9.5l35.8-35.8
	C473.1,346.5,474.2,341.5,473,337z"/>
<path class="st1" d="M391.5,447.1l-18.9-19l51.8-51.8l19,19L391.5,447.1z"/>
<path class="st0" d="M382,437.6l51.8-51.8l9.5,9.5l-51.8,51.8L382,437.6z"/>
<path class="st7" d="M407.7,376.4l35.6,35.6c1.1,1.1,2.9,1.1,4,0l12.7-12.7c1.1-1.1,1.1-2.9,0-4l-35.6-35.6c-1.1-1.1-2.9-1.1-4,0
	l-12.7,12.7C406.6,373.5,406.6,375.3,407.7,376.4z"/>
<path class="st8" d="M434.1,398.9l12.7-12.7c1.1-1.1,1.1-2.9,0-4l13.1,13.1c1.1,1.1,1.1,2.9,0,4L447.2,412c-1.1,1.1-2.9,1.1-4,0
	l-13.1-13.1C431.3,399.9,433,399.9,434.1,398.9z"/>
<path class="st3" d="M235.2,486.5c0-56.6,45.9-102.5,102.5-102.5s102.5,45.9,102.5,102.5H235.2z"/>
<path class="st6" d="M440.2,486.5H271.6l97.6-97.6C410.4,402.2,440.2,440.8,440.2,486.5z"/>
<path class="st9" d="M305.7,486.5h-34.1l97.6-97.6c8.2,2.7,16.1,6.4,23.2,10.8L305.7,486.5z"/>
<path class="st5" d="M235.2,486.5h168.6l-97.6-97.6C265.1,402.2,235.2,440.8,235.2,486.5z"/>
<path class="st6" d="M347.4,384.5c-3.1-0.3-6.4-0.5-9.6-0.5c-56.6,0-102.5,45.9-102.5,102.5h19.3
	C254.4,433.1,295.3,389.3,347.4,384.5z"/>
<path class="st4" d="M369.7,486.5h34.1l-97.6-97.6c-8.2,2.7-16.1,6.4-23.2,10.8L369.7,486.5z"/>
<path class="st9" d="M311.8,394.4l-5.6-5.6c-8.2,2.7-16.1,6.4-23.2,10.8l8.1,8.1C297.5,402.6,304.4,398.1,311.8,394.4z"/>
<path class="st5" d="M447.9,290.7c0,60.8-49.3,110.1-110.1,110.1s-110.1-49.3-110.1-110.1S277,180.6,337.8,180.6
	S447.9,229.8,447.9,290.7z"/>
<path class="st6" d="M246.1,290.7c0-57.7,44.4-105.1,100.9-109.7c-3-0.3-6.1-0.4-9.2-0.4c-60.8,0-110.1,49.3-110.1,110.1
	S277,400.8,337.8,400.8c3.1,0,6.2-0.1,9.2-0.4C290.5,395.7,246.1,348.4,246.1,290.7z"/>
<path class="st6" d="M227.6,290.7c0,2.7,0.1,5.4,0.3,8c0.4,0,0.9,0.1,1.3,0.1h217.1c0.4,0,0.9,0,1.3-0.1c0.2-2.7,0.3-5.3,0.3-8
	c0-8.4-0.9-16.5-2.7-24.4H230.3C228.5,274.1,227.6,282.3,227.6,290.7z"/>
<path class="st10" d="M378.1,337.5l-13.7-5.7c-17-7.1-36.2-7.1-53.2,0l-13.7,5.7c-16.4,6.8-34.5-5.2-34.5-23c0-13.8,11.2-25,25-25
	h99.9c13.8,0,25,11.2,25,25C412.6,332.2,394.5,344.4,378.1,337.5z"/>
<path class="st4" d="M229.1,289.5h217.1c4.3,0,7.7-3.6,7.4-7.9c-1-12-3.9-23.5-8.4-34.1c-1.1-2.7-3.8-4.5-6.8-4.5H237
	c-2.9,0-5.6,1.7-6.8,4.5c-4.6,10.6-7.4,22.1-8.4,34.1C221.5,285.8,224.8,289.5,229.1,289.5z"/>
<path class="st9" d="M240.3,281.6c1-12,3.9-23.5,8.4-34.1c1.1-2.7,3.8-4.5,6.8-4.5H237c-2.9,0-5.6,1.7-6.8,4.5
	c-4.6,10.6-7.4,22.1-8.4,34.1c-0.3,4.3,3.1,7.9,7.4,7.9h18.5C243.3,289.5,239.9,285.8,240.3,281.6z"/>
<g>
	<path class="st3" d="M208.5,352.7l-9.5,9.5l6.6,6.6l9.5-9.5c1.8-1.8,1.8-4.8,0-6.6S210.3,350.8,208.5,352.7z"/>
	<path class="st3" d="M219.4,363.5l-9.5,9.5l6.6,6.6l9.4-9.5c1.8-1.8,1.8-4.8,0-6.6C224.1,361.7,221.2,361.7,219.4,363.5z"/>
	<path class="st3" d="M466.9,352.7c-1.8-1.8-4.8-1.8-6.6,0c-1.8,1.8-1.8,4.8,0,6.6l9.5,9.5l6.6-6.6L466.9,352.7z"/>
	<path class="st3" d="M456,363.5c-1.8-1.8-4.8-1.8-6.6,0c-1.8,1.8-1.8,4.8,0,6.6l9.5,9.5l6.6-6.6L456,363.5z"/>
	<path class="st3" d="M377,317.4c-2.5,0-4.5-2-4.5-4.5v-7c0-2.5,2-4.5,4.5-4.5s4.5,2,4.5,4.5v7C381.4,315.4,379.4,317.4,377,317.4z"
		/>
	<path class="st3" d="M298.5,317.4c-2.5,0-4.5-2-4.5-4.5v-7c0-2.5,2-4.5,4.5-4.5s4.5,2,4.5,4.5v7C303,315.4,301,317.4,298.5,317.4z"
		/>
</g>
</svg>
